<?xml version="1.0" standalone="no"?><!DOCTYPE svg PUBLIC "-//W3C//DTD SVG 1.1//EN" "http://www.w3.org/Graphics/SVG/1.1/DTD/svg11.dtd"><svg t="1742134384553" class="icon" viewBox="0 0 1024 1024" version="1.1" xmlns="http://www.w3.org/2000/svg" p-id="1039" xmlns:xlink="http://www.w3.org/1999/xlink" width="200" height="200"><path d="M425.18603516 515.1640625a20.10498071 20.10498071 0 0 0-20.03906225 20.03906225v40.14404297a20.07202148 20.07202148 0 1 0 40.11108373 0v-40.14404297a20.10498071 20.10498071 0 0 0-20.07202148-20.03906225m26.36718724 113.80737305a19.94018529 19.94018529 0 0 1 0-28.34472631 19.94018529 19.94018529 0 0 1 28.31176783 0 50.097656 50.097656 0 0 0 70.82885768 0 19.94018529 19.94018529 0 0 1 28.31176707 0 19.94018529 19.94018529 0 0 1 0 28.34472631 89.97802734 89.97802734 0 0 1-127.45239258 0m133.87939453-73.82812476a20.10498071 20.10498071 0 1 1 20.07202149 20.07202149 19.97314453 19.97314453 0 0 1-20.10497996-20.07202149zM216.12719701 116.4921875A99.66796875 99.66796875 0 0 0 116.4921875 216.12719701v591.74560598A99.66796875 99.66796875 0 0 0 216.12719701 907.5078125h591.74560598A99.66796875 99.66796875 0 0 0 907.5078125 807.87280299V216.12719701A99.66796875 99.66796875 0 0 0 807.87280299 116.4921875zM515.29589869 241.07714844h0.13183543a207.21313451 207.21313451 0 0 1 207.08129909 207.18017603v86.84692332h49.70214818c57.01904272 0 69.87304662 79.95849584 15.68847707 97.8881836l-65.39062525 21.85180664v37.47436523a49.86694361 49.86694361 0 0 1-72.18017579 44.59350586l-36.2878418-18.09448242c-1.71386743-0.79101563-3.79028346 0-4.3176267 1.81274439-29.39941433 91.79077174-159.35668921 91.79077174-188.75610351 0a3.13110326 3.13110326 0 0 0-4.28466822-1.81274439l-36.32080104 18.12744166a49.86694361 49.86694361 0 0 1-72.18017578-44.6264651v-37.54028295l-65.39062449-21.75292969c-54.28344727-17.83081079-41.33056641-97.88818359 15.72143554-97.88818359h49.66918895v-86.87988256A207.1472168 207.1472168 0 0 1 515.29589869 241.07714844" fill="#434af9" p-id="1040"></path></svg>